<svg width="1081" height="403" viewBox="0 0 1081 403" fill="none" xmlns="http://www.w3.org/2000/svg">
<path d="M37.4 318C35.1333 318 33.2067 317.32 31.62 315.96C30.26 314.373 29.58 312.447 29.58 310.18V87.82C29.58 85.5533 30.26 83.74 31.62 82.38C33.2067 80.7933 35.1333 80 37.4 80H55.42C57.6867 80 59.5 80.7933 60.86 82.38C62.4467 83.74 63.24 85.5533 63.24 87.82V288.42H176.12C178.613 288.42 180.54 289.213 181.9 290.8C183.487 292.16 184.28 294.087 184.28 296.58V310.18C184.28 312.447 183.487 314.373 181.9 315.96C180.313 317.32 178.387 318 176.12 318H37.4ZM228.982 318C226.715 318 224.789 317.32 223.202 315.96C221.842 314.373 221.162 312.447 221.162 310.18V87.82C221.162 85.5533 221.842 83.74 223.202 82.38C224.789 80.7933 226.715 80 228.982 80H247.002C249.269 80 251.082 80.7933 252.442 82.38C254.029 83.74 254.822 85.5533 254.822 87.82V310.18C254.822 312.447 254.029 314.373 252.442 315.96C251.082 317.32 249.269 318 247.002 318H228.982ZM321.951 318C319.684 318 317.757 317.32 316.171 315.96C314.811 314.373 314.131 312.447 314.131 310.18V88.16C314.131 85.6667 314.811 83.74 316.171 82.38C317.757 80.7933 319.684 80 321.951 80H415.111C439.364 80 457.611 85.78 469.851 97.34C482.091 108.9 488.211 124.087 488.211 142.9C488.211 155.593 485.264 166.133 479.371 174.52C473.704 182.907 466.904 189.027 458.971 192.88C468.491 197.64 476.537 205.007 483.111 214.98C489.684 224.953 492.971 236.4 492.971 249.32C492.971 262.013 490.024 273.573 484.131 284C478.464 294.427 469.964 302.7 458.631 308.82C447.297 314.94 433.697 318 417.831 318H321.951ZM410.011 180.64C424.291 180.64 435.171 177.353 442.651 170.78C450.357 164.207 454.211 155.027 454.211 143.24C454.211 131.68 450.471 122.84 442.991 116.72C435.511 110.6 424.517 107.54 410.011 107.54H347.451V180.64H410.011ZM413.411 290.46C427.691 290.46 438.797 286.607 446.731 278.9C454.891 271.193 458.971 261.333 458.971 249.32C458.971 236.853 454.891 226.88 446.731 219.4C438.797 211.693 427.691 207.84 413.411 207.84H347.451V290.46H413.411Z" fill="#3A85B4"/>
<path d="M880.3 318C878.487 318 876.787 317.32 875.2 315.96C873.84 314.6 873.16 313.013 873.16 311.2C873.16 309.613 873.613 308.14 874.52 306.78L952.38 196.96L878.26 91.22C877.58 90.0866 877.24 88.6133 877.24 86.8C877.24 84.9867 877.92 83.4 879.28 82.04C880.64 80.68 882.227 80 884.04 80H904.44C907.84 80 910.9 81.9267 913.62 85.78L973.46 170.78L1032.96 85.78C1035.23 81.9267 1038.17 80 1041.8 80H1061.18C1062.99 80 1064.58 80.68 1065.94 82.04C1067.3 83.4 1067.98 84.9867 1067.98 86.8C1067.98 88.84 1067.53 90.3133 1066.62 91.22L993.52 197.3L1071.04 306.78C1071.95 308.14 1072.4 309.613 1072.4 311.2C1072.4 313.013 1071.72 314.6 1070.36 315.96C1069 317.32 1067.3 318 1065.26 318H1044.52C1041.12 318 1038.06 316.073 1035.34 312.22L972.1 224.16L909.2 312.22C906.933 316.073 903.987 318 900.36 318H880.3Z" fill="#3A85B4"/>
<path d="M846.683 187.599L793.539 155.554L822.588 122.72C824.072 121.044 824.618 118.785 824.053 116.653C823.489 114.522 821.882 112.785 819.743 111.986L721.796 75.4672C718.959 74.4036 715.73 75.1973 713.771 77.4265L688.501 106.167L663.231 77.4265C661.27 75.1973 658.043 74.4059 655.206 75.4672L557.261 111.986C555.12 112.782 553.515 114.522 552.951 116.653C552.387 118.783 552.932 121.044 554.416 122.72L583.463 155.554L530.32 187.599C528.127 188.923 526.861 191.284 527.012 193.76C527.166 196.236 528.717 198.436 531.059 199.5L585.967 224.447V278.507C585.967 281.203 587.633 283.65 590.215 284.734L685.047 324.63C685.101 324.652 685.158 324.659 685.213 324.68C685.559 324.816 685.912 324.922 686.272 325.006C686.386 325.031 686.5 325.056 686.616 325.077C687.045 325.151 687.474 325.206 687.911 325.206C688.335 325.206 688.757 325.158 689.177 325.083C689.295 325.063 689.411 325.036 689.528 325.011C689.867 324.934 690.201 324.834 690.526 324.711C690.587 324.686 690.654 324.677 690.715 324.655L787.918 284.759C790.53 283.686 792.225 281.226 792.225 278.507V223.905L845.938 199.5C848.28 198.434 849.833 196.234 849.987 193.76C850.142 191.284 848.875 188.923 846.683 187.599ZM571.706 121.205L655.625 89.9148L679.383 116.935L596.649 149.399L571.706 121.205ZM548.842 192.515L592.015 166.48L674.494 200.361L632.856 230.685L548.842 192.515ZM680.801 307.978L600.194 274.067V230.91L630.666 244.754C631.638 245.194 632.678 245.412 633.717 245.412C635.246 245.412 636.766 244.94 638.027 244.022L680.801 212.875V307.978ZM688.214 127.97V159.01V190.758L680.801 188.148L666.206 182.004L610.746 158.529H610.123L680.801 131.083L688.214 127.97ZM721.377 89.9148L805.296 121.205L780.353 149.401L697.621 116.935L721.377 89.9148ZM688.214 190.758V159.01V127.97L695.025 130.62L766.879 158.529H766.14L766.879 158.819L766.981 158.86L695.025 188.392L688.214 190.758ZM778.003 274.021L695.025 308.08V212.015L738.978 244.022C740.239 244.94 741.756 245.412 743.288 245.412C744.326 245.412 745.367 245.194 746.339 244.754L778.005 230.366L778.003 274.021ZM744.146 230.685L702.508 200.364L784.985 166.482L828.16 192.517L744.146 230.685Z" fill="#93D0F5"/>
</svg>
