<?xml version="1.0" encoding="utf-8"?>
<!-- Generator: Adobe Illustrator 25.2.0, SVG Export Plug-In . SVG Version: 6.00 Build 0)  -->
<svg version="1.1" id="Layer_13" xmlns="http://www.w3.org/2000/svg" xmlns:xlink="http://www.w3.org/1999/xlink" x="0px" y="0px"
	 viewBox="0 0 338.45 294.28" style="enable-background:new 0 0 338.45 294.28;" xml:space="preserve">
<style type="text/css">
	.st0{fill:#CB5F50;}
	.st1{fill:#FFC1A4;}
	.st2{fill:#66B5D8;}
	.st3{fill:#77312A;}
	.st4{fill:#89CFFF;}
	.st5{fill:#4B90B7;}
	.st6{fill:#4B67FF;}
	.st7{fill:#EA8F7A;}
	.st8{fill:#015130;}
	.st9{fill:#02004E;}
	.st10{fill:#F49C84;}
	.st11{fill:#4A4C86;}
	.st12{fill:#403F7A;}
	.st13{fill:#5878B6;}
	.st14{fill:#474981;}
	.st15{fill:#F8B00D;}
	.st16{fill:#FFFFFF;}
	.st17{fill:#0D8F62;}
	.st18{fill:#0E2A2D;}
	.st19{fill:#F79C0B;}
	.st20{fill:#1738DD;}
	.st21{fill:#B4302C;}
	.st22{fill:#C1C168;}
	.st23{fill:#DBDD99;}
	.st24{fill:#2F2526;}
	.st25{fill:#D6C1A5;}
	.st26{fill:#A99574;}
	.st27{fill:#FFEFDC;}
	.st28{fill:#E0CCED;}
	.st29{fill:#ECF2C5;}
	.st30{fill:#2E2EE5;}
	.st31{fill:#E5AB7A;}
	.st32{fill:#FFEEE1;}
	.st33{fill:#E28C79;}
	.st34{fill:#CE8F5B;}
	.st35{fill:#F6EBFC;}
	.st36{fill:#1F63EA;}
	.st37{fill:#AFAFAF;}
	.st38{fill:#D6D6D6;}
	.st39{fill:#FC9C9D;}
	.st40{fill:#EFDDAB;}
	.st41{fill:#3E3F4F;}
	.st42{fill:#E59C9C;}
	.st43{fill:#F1A69B;}
	.st44{fill:#D3877F;}
	.st45{fill:#2C5071;}
	.st46{fill:#515151;}
</style>
<g>
	<g>
		<g>
			<path class="st0" d="M213.89,280.54c-4.41,2.24-4.91-0.65-4.91-0.65c-4.91-1.66-0.58-11.34,0.29-16.54
				c0.87-5.2-0.43-10.98-1.32-12.93c-0.48-1.05-0.25-1.68,0.07-2.04c0.27-0.31,0.6-0.41,0.6-0.41l-5.79-7.13l10.99-8.03
				c0,0,5.2,5.05,6.28,6.14c0.28,0.28,0.83,0.71,1.51,1.2c1.91,1.36,4.84,3.16,5.85,3.42c1.37,0.36,2.67,2.24,2.67,2.24
				C232.45,256.86,218.29,278.31,213.89,280.54z"/>
		</g>
		<g>
			<path class="st1" d="M221.61,240.14c-0.96,3.23-3.73,6.68-6.86,6.67c-3.9-0.01-6.14,1.16-6.14,1.16l-5.79-7.13l10.99-8.03
				c0,0,5.2,5.05,6.28,6.14C220.38,239.23,220.93,239.66,221.61,240.14z"/>
		</g>
		<g>
			<polygon class="st2" points="177.65,219.51 199.46,245.31 215.56,234.28 181.22,189.52 			"/>
		</g>
		<g>
			<path class="st0" d="M165.02,276.41c1.63,1.52-0.98,6.07-3.9,6.18c-2.93,0.11-29.93-0.21-35.03-1.19c0,0-6.29-0.22-4.99-3.14
				c0,0,6.61-3.25,13.45-6.29c6.83-3.04,10.41-6.61,11.82-11.17c0,0,0.11-0.54,1.84,0l4.23-16.48l13.99,3.69
				c0,0-4.23,13.66-3.36,17.13C163.07,265.14,163.39,274.89,165.02,276.41z"/>
		</g>
		<g>
			<path class="st1" d="M163.07,265.14c-9.54,2.49-14.85-4.34-14.85-4.34l4.23-16.48l13.99,3.69
				C166.43,248,162.2,261.67,163.07,265.14z"/>
		</g>
		<g>
			<path class="st3" d="M209.13,280.16l-0.31-0.53c10.15-6,14.82-15.01,16.94-21.51c2.3-7.05,2.2-12.74,2.2-12.8l0.61-0.01
				c0,0.06,0.11,5.85-2.23,13C224.18,264.91,219.45,274.06,209.13,280.16z"/>
		</g>
		<g>
			<path class="st3" d="M146.13,279.64c-12.03,0-23.06-1.96-23.22-1.99l0.11-0.6c0.25,0.04,24.94,4.43,40.67,0.01l0.17,0.59
				C158.53,279.14,152.2,279.64,146.13,279.64z"/>
		</g>
		<g>
			<path class="st4" d="M155.2,114.07c0,0-2.53,38.83-2.53,42.37c0,3.54-2.66,27.63,7.08,37.27l-8.47,53.1
				c0,0,10.62-0.21,21.88,7.26c0,0,13.03-51.41,17.07-80.78s5.24-49.25,4.83-54.66L155.2,114.07z"/>
		</g>
		<g>
			<path class="st5" d="M159.58,195.08c-0.01,0-0.01,0-0.02,0c-0.17-0.01-0.3-0.16-0.29-0.32l4.34-69.45
				c0.01-0.17,0.15-0.3,0.32-0.29c0.17,0.01,0.3,0.16,0.29,0.32l-4.34,69.45C159.88,194.96,159.74,195.08,159.58,195.08z"/>
		</g>
		<g>
			<path class="st5" d="M163.39,134.23c-0.08,0-0.17-0.03-0.23-0.1l-4.65-5.06c-0.11-0.12-0.11-0.32,0.02-0.43
				c0.13-0.11,0.32-0.11,0.43,0.02l4.65,5.06c0.11,0.12,0.11,0.32-0.02,0.43C163.53,134.21,163.46,134.23,163.39,134.23z"/>
		</g>
		<g>
			<path class="st5" d="M189.34,135.62c-0.03,0-0.06,0-0.08-0.01c-2.12-0.6-4.02-2.36-5.47-5.1c-1.09-2.05-1.55-3.89-1.57-3.97
				c-0.04-0.16,0.06-0.33,0.22-0.37c0.16-0.04,0.33,0.06,0.37,0.22c0.02,0.07,1.85,7.29,6.61,8.63c0.16,0.05,0.26,0.22,0.21,0.38
				C189.6,135.53,189.48,135.62,189.34,135.62z"/>
		</g>
		<g>
			<polygon class="st6" points="164.29,32.81 150.93,41.18 155.33,48.4 169.09,39.9 			"/>
			<path d="M155.22,48.83l-4.71-7.74l13.87-8.69l5.15,7.6L155.22,48.83z M151.35,41.28l4.08,6.7l13.23-8.17l-4.46-6.58L151.35,41.28
				z"/>
		</g>
		<g>
			<path class="st1" d="M139.56,51.92c0,0,3.58-2.92,4.48-4.83c0.9-1.91,2.51-7.58,6.39-6.51c0,0-0.12-1.79,2.57-1.49
				c0,0-0.12-0.73,0.6-1.26s1.73,0.3,2.09,0.78s0.66,2.27-0.95,2.09c0,0,2.21,2.15,1.55,2.57c-0.66,0.42-4.84-0.69-4.84-0.69
				l2.14,3.56c0,0-0.52,2.02-0.22,2.14c0.3,0.12,1.31,0.66,2.03-0.78c0.72-1.43,5.19-0.54,5.49,0.3c0.3,0.84-0.42,0.71-1.91,1.13
				s-3.76,3.05-4.72,3.41c-0.95,0.36-3.64,0.78-4.6,1.01c-0.95,0.24-5.91,5.79-5.91,5.79L139.56,51.92z"/>
		</g>
		<g>
			<path class="st7" d="M150.92,46.58c-0.17,0-0.34-0.05-0.51-0.15c-0.76-0.44-1.38-1.86-1.74-2.87c-0.57,1.25-1.82,1.81-1.88,1.84
				c-0.16,0.07-0.34,0-0.4-0.16c-0.07-0.15,0-0.34,0.16-0.4c0.03-0.01,1.71-0.78,1.79-2.43c0.01-0.15,0.12-0.27,0.27-0.29
				c0.15-0.02,0.29,0.08,0.33,0.22c0.23,0.84,0.99,3.11,1.78,3.56c0.14,0.08,0.23,0.07,0.29,0.05c0.06-0.02,0.15-0.06,0.23-0.2
				c0.39-0.74-0.18-2.79-0.44-3.52c-0.06-0.16,0.03-0.33,0.19-0.39c0.16-0.06,0.33,0.03,0.39,0.19c0.1,0.29,0.98,2.9,0.4,4.01
				c-0.14,0.26-0.35,0.43-0.61,0.5C151.08,46.57,151,46.58,150.92,46.58z"/>
		</g>
		<g>
			<path class="st7" d="M145.47,48.71c-0.14,0-0.27-0.1-0.3-0.25c-0.03-0.17,0.08-0.33,0.24-0.36c0.53-0.1,5.24-0.95,6.68,0.05
				c0.14,0.1,0.17,0.29,0.08,0.43c-0.1,0.14-0.29,0.17-0.43,0.08c-1.04-0.72-4.84-0.21-6.21,0.05
				C145.51,48.71,145.49,48.71,145.47,48.71z"/>
		</g>
		<path class="st8" d="M165.95,49.9c0,0-4.56,2.45-4.33,5.01c0.23,2.56,4.81-2.93,4.84-3.82C166.5,50.2,165.95,49.9,165.95,49.9z"/>
		<g>
			<path class="st9" d="M155.28,20.97c-2.9,2.66-2.09,8.8,2.27,12.45c4.37,3.65,18.31,10.89,18.31,10.89s1.32-4.25,1.97-4.97
				c0.66-0.72,3.83-8.86,0.42-15.44c0,0,1.49,0.18,1.55,0.54c0.06,0.36-0.57-2.87-5.31-1.97c0,0-3.24-5.45-9.11-4.73
				c-5.16,0.63-5.03,3.71-5.03,3.71S157.43,18.99,155.28,20.97z"/>
		</g>
		<g>
			<path class="st1" d="M185.62,57.83c-10.77,4.61-28.9,0-28.9,0s7.6-4.07,8.44-4.79c0.84-0.72,0.72-2.45,0.72-2.45
				c-7.36,0.48-8.08-5.74-8.05-7.54c0.02-1.8,0.21-6.58-0.32-7.96c-0.54-1.38,0.78-5.74,0.78-5.74c2.92,4.48,12.34,1.64,12.34,1.64
				c0.45,3.13,2.21,6.6,2.28,4.81c0.06-1.79,3.71-4.19,4.91-0.39c1.2,3.8-2.77,5.25-2.77,5.25
				C174.49,52.5,185.62,57.83,185.62,57.83z"/>
		</g>
		<g>
			<path class="st10" d="M172.86,47.08c-1.09,5.28-7.71,5.96-7.71,5.96c0.84-0.72,0.72-2.45,0.72-2.45
				C170.81,50.05,172.86,47.08,172.86,47.08z"/>
		</g>
		<g>
			<path class="st11" d="M216.84,172.33c0,0,3.21,3.25,3.63,5.83l2.41-0.62c0,0-1.66-5.86-4.67-6.72c-3.01-0.85,0,0,0,0
				L216.84,172.33z"/>
		</g>
		<g>
			<path class="st1" d="M207.63,161.1c0,0,0.85,2.32,0,4.48c-0.85,2.16-4.24,4.17-2.86,8.03c1.39,3.86,1.85,6.79,4.55,3.86
				c0,0,2.47,0.93,3.32-2.32c0,0,2.39,1.7,3.09-1.31c0,0,2.47,0.15,2.47-3.01s-1.16-12.35-1.16-12.35L207.63,161.1z"/>
		</g>
		<g>
			<path class="st12" d="M195.51,243.23c0,0,0.19,8.26-2,12.17c-2.2,3.92-5.68,9.47-5.68,9.47l3.85,1.28c0,0,7.69-15.45,6.19-21.43
				L195.51,243.23z"/>
		</g>
		<g>
			<path class="st11" d="M233.23,236.49c0,0-1.29,12.34,6.82,6.41l1.23,3.92c0,0-5.5,4.25-8.13-0.74c-2.63-5-2.33-8.64-2.33-8.64
				L233.23,236.49z"/>
		</g>
		<g>
			<path class="st13" d="M241.9,231.92c0.54,2.82,0.32,4.89-7.39,5.43c-7.72,0.54-34.56,9.45-34.56,9.45s-2.39-1.08-5.43-2.82
				c-3.05-1.74-2.93-6.85-3.59-15.43c-0.65-8.59-1.82-22.74-2.3-24.84c-0.48-2.1-3.77-12.75-5-17.48c-1.23-4.73-1.7-5.13,0-7.58
				c0.68-0.98,5.51-0.07,8.33,0c2.82,0.07,16.04,0.97,16.04,0.97l-0.05-0.64c0,0,7.13-1.44,7.58-1.44c0.44,0,0.56,0.78,0.56,0.78
				c4.1-0.12,14.65-3.16,18.22-4.63c3.5-1.44,4.64,1.4,4.68,1.52c-0.02,0-0.02,0.3,2.48,8.02c2.72,8.37-3.48,11.3-3.48,11.3
				S241.36,229.09,241.9,231.92z"/>
		</g>
		<g>
			<path class="st14" d="M223.17,217.56l-4.39,2.85c0,0-6.48-6.41-5.41-14.97c1.07-8.57,1.37-16.26-1.03-20.3h-2.52l-1.82-5.52
				l-0.05-0.64c0,0,7.13-1.44,7.58-1.44c0.44,0,0.56,0.78,0.56,0.78s2.25,4.8,1.81,5.13c-0.44,0.32-2.47,0.93-2.47,0.93
				s2.74,5.92,2.47,11.36C217.63,201.15,214.88,206.81,223.17,217.56z"/>
		</g>
		<g>
			
				<rect x="196.18" y="197.43" transform="matrix(0.9909 -0.1349 0.1349 0.9909 -27.8164 28.5127)" class="st14" width="0.61" height="44.16"/>
		</g>
		<g>
			
				<rect x="194.98" y="206.95" transform="matrix(0.9962 -0.0869 0.0869 0.9962 -17.1979 19.5608)" class="st14" width="42.05" height="0.61"/>
		</g>
		<g>
			<path class="st15" d="M228.91,227.28l0.95,4.92c0,0,2.27-0.16,4.07-0.95s4.39-0.74,4.39-0.74l-0.58-5.45L228.91,227.28z"/>
		</g>
		<g>
			<path class="st16" d="M190.64,195.35c-0.6,0-1.17-0.19-1.73-0.58c-3.02-2.1-4.47-9.47-4.52-11.52c-0.03-1.21,0.52-2.07,1.47-2.3
				c0.93-0.22,1.94,0.28,2.36,1.15c1.57,3.31,2.19,9.2,2.21,9.45l-0.61,0.06c-0.01-0.06-0.63-6.03-2.16-9.25
				c-0.29-0.62-1.01-0.97-1.66-0.82c-0.66,0.16-1.02,0.77-1,1.69c0.04,1.91,1.45,9.09,4.25,11.03c0.7,0.49,1.41,0.59,2.17,0.33
				c4.54-1.57,20.42-2.29,22.83-1.35l-0.22,0.57c-2.28-0.9-18.08-0.14-22.41,1.35C191.3,195.29,190.97,195.35,190.64,195.35z"/>
		</g>
		<g>
			<path class="st16" d="M232.85,195.08c-1.36,0-2.79-0.06-4.02-0.25c-3.53-0.54-10.88-0.82-10.95-0.82l0.02-0.61
				c0.07,0,7.46,0.29,11.02,0.83c3.5,0.53,8.98,0,9.04,0l0.06,0.61C237.87,194.85,235.49,195.08,232.85,195.08z"/>
		</g>
		<g>
			<path class="st11" d="M206.06,171.82c0,0-5.33,3.07-5,7.53h2.49c0,0-0.56-3.28,3.53-5.16L206.06,171.82z"/>
		</g>
		<g>
			<path class="st17" d="M217.89,135.91c0,8.73,0,23.49,0,23.49s-14.55,5.17-15.84,4.52s-3.12-34.58-3.99-39.97
				c-0.86-5.39-3.43-23.27-8.23-29.74c0,0,0.26,4.74,1.55,8.19s4.42,13.79,4.42,17.24c0,0-9.05,0.21-15.41-0.32
				c-6.36-0.54-25.53-2.91-25.53-2.91s-5.82-1.29-4.52-10.99c1.29-9.7,0.43-17.99-1.08-21.01c0,0-9.7,4.42-18.64,3.66
				c-8.94-0.76-17.02-5.82-12.17-13.47c4.85-7.65,15.62-19.07,21.33-24.13l7.97,13.25c0,0,10.24-7.01,11-7.58
				c0.75-0.57,0.12-3.46,2.88-6.22c0,0,1.24,0.73,3.77,0.68c-0.89,0.42-3.88,2.37-3.61,6.08l-0.86-0.28l0.5,12.09l6.01,1.7
				c0,0,15.24-14.99,9.41-12.79c3.58-3.44,3.87-3.71,3.89-3.73L180.41,54c0,0-4.1-3.31-4.93-8.49c-0.08-0.49-0.28-1.04-0.3-1.56
				c0,0,8.88-3.95,12.35,0.9c3.47,4.84,0.57,8.15,1.19,9.63c0.63,1.48,2.45,4.56,2.28,7.81c0,0,9.11,7.59,12.13,11.69
				c3.01,4.09,8.19,14.87,10.56,25C216.06,109.08,217.89,127.18,217.89,135.91z"/>
		</g>
		<g>
			<path class="st8" d="M184.99,49.87c-1.9,1.85-4.57,4.13-4.57,4.13s-4.75-3.65-4.93-8.49c1.79-0.56,5.94-1.7,7.97-1.16
				C186.15,45.06,186.89,48.02,184.99,49.87z"/>
		</g>
		<g>
			<path class="st17" d="M167.44,70.19l-6.01-1.7l-0.5-12.09l0.86,0.28c0.33,4.39-0.75,14.87,10.75,4.84c1.8-1.72,3.2-3.07,4.3-4.12
				c0,0,0,0,0.01,0C182.68,55.2,167.44,70.19,167.44,70.19z"/>
		</g>
		<g>
			<path class="st16" d="M176.85,57.41c-1.1,1.05-2.5,2.4-4.3,4.12c-11.51,10.03-10.43-0.46-10.75-4.84
				C161.8,56.69,171.01,59.63,176.85,57.41z"/>
		</g>
		<g>
			<path class="st8" d="M172.62,65.64c-0.11,0-0.21-0.06-0.27-0.16c-0.08-0.15-0.03-0.33,0.12-0.42c0.13-0.07,12.6-7,15.15-9.87
				c0.11-0.13,0.31-0.14,0.43-0.03c0.13,0.11,0.14,0.31,0.03,0.43c-2.62,2.95-14.79,9.71-15.31,10
				C172.72,65.63,172.67,65.64,172.62,65.64z"/>
		</g>
		<g>
			<path class="st8" d="M189.29,61.46c-0.06,0-0.13-0.02-0.18-0.06l-4.43-3.31c-0.14-0.1-0.16-0.29-0.06-0.43
				c0.1-0.14,0.29-0.16,0.43-0.06l4.43,3.31c0.14,0.1,0.16,0.29,0.06,0.43C189.47,61.41,189.38,61.46,189.29,61.46z"/>
		</g>
		<g>
			<path class="st8" d="M160.27,64.81c-0.11,0-0.22-0.06-0.27-0.17c-0.08-0.16-2.02-4.05-1.54-7.99c0.02-0.17,0.18-0.29,0.34-0.27
				c0.17,0.02,0.29,0.17,0.27,0.34c-0.45,3.75,1.46,7.6,1.48,7.64c0.08,0.15,0.02,0.34-0.14,0.41
				C160.36,64.8,160.31,64.81,160.27,64.81z"/>
		</g>
		<g>
			<path class="st8" d="M132.41,80.94c-0.07,0-0.15-0.03-0.21-0.08c-0.13-0.11-0.13-0.31-0.02-0.43l15.34-16.91
				c0.11-0.13,0.31-0.13,0.43-0.02c0.13,0.11,0.13,0.31,0.02,0.43l-15.34,16.91C132.58,80.9,132.5,80.94,132.41,80.94z"/>
		</g>
		<g>
			<path class="st8" d="M134.64,83.88c-0.08,0-0.15-0.03-0.21-0.09c-0.12-0.12-0.12-0.31-0.01-0.43c0.05-0.05,4.84-5.02,4.03-9.66
				c-0.03-0.17,0.08-0.33,0.25-0.35c0.17-0.03,0.33,0.08,0.35,0.25c0.36,2.06-0.26,4.47-1.78,6.99c-1.14,1.88-2.36,3.15-2.42,3.2
				C134.8,83.85,134.72,83.88,134.64,83.88z"/>
		</g>
		<g>
			<path class="st8" d="M147.32,79.56c-0.13,0-0.25-0.09-0.29-0.22c-0.12-0.42-2.99-10.34,0.49-14.66c0.11-0.13,0.3-0.15,0.43-0.05
				c0.13,0.11,0.15,0.3,0.05,0.43c-3.28,4.07-0.41,14-0.38,14.1c0.05,0.16-0.04,0.33-0.21,0.38
				C147.38,79.56,147.35,79.56,147.32,79.56z"/>
		</g>
		<g>
			<path class="st8" d="M189.73,93.95c-0.01,0-0.02,0-0.03,0c-0.16-0.01-0.27-0.16-0.26-0.33c0.74-8.66,4.01-13.76,6.62-16.51
				c2.85-3,5.49-3.92,5.6-3.96c0.15-0.05,0.31,0.04,0.36,0.2s-0.03,0.33-0.18,0.38c-0.1,0.04-10.45,3.77-11.82,19.95
				C190,93.83,189.87,93.95,189.73,93.95z"/>
		</g>
		<g>
			<path class="st8" d="M184.86,115.36c-0.05,0-0.1-0.01-0.14-0.04c-1.92-1.02-1.33-5.98-1.1-7.48
				c-4.7-0.23-10.31-10.99-11.17-12.69c-3.68,0.6-12.6-0.85-14.49-1.17c-0.47,6.89-6.29,12.19-6.54,12.42
				c-0.13,0.11-0.32,0.1-0.43-0.02c-0.11-0.13-0.1-0.32,0.02-0.43c0.06-0.05,6.07-5.55,6.35-12.34l0.01-0.35l0.34,0.06
				c0.11,0.02,11.09,1.94,14.83,1.19l0.23-0.05l0.1,0.21c0.06,0.13,6.23,12.56,10.86,12.56c0.07,0,0.13,0,0.2-0.01l0.39-0.03
				l-0.07,0.39c-0.3,1.74-0.75,6.41,0.73,7.19c0.15,0.08,0.21,0.26,0.13,0.41C185.08,115.31,184.97,115.36,184.86,115.36z"/>
		</g>
		<g>
			<path class="st9" d="M168.79,34.94c-0.12,0-0.24-0.05-0.33-0.14c-1.47-1.51-3.52-0.61-3.54-0.61c-0.23,0.1-0.5,0-0.61-0.23
				c-0.1-0.23,0-0.5,0.23-0.61c0.11-0.05,2.66-1.16,4.57,0.8c0.18,0.18,0.17,0.47-0.01,0.65C169.02,34.9,168.91,34.94,168.79,34.94z
				"/>
		</g>
		<g>
			<path class="st9" d="M157.49,35.55c-0.02,0-0.04,0-0.06,0c-0.25-0.03-0.43-0.26-0.4-0.51c0.06-0.5,0.29-0.91,0.66-1.18
				c0.71-0.51,1.67-0.35,1.77-0.33c0.25,0.05,0.41,0.29,0.37,0.54c-0.05,0.25-0.29,0.41-0.53,0.37c-0.19-0.03-0.74-0.07-1.07,0.17
				c-0.16,0.12-0.25,0.3-0.29,0.55C157.92,35.38,157.72,35.55,157.49,35.55z"/>
		</g>
		<g>
			<path class="st7" d="M161.71,42.13c-0.37,0-0.64-0.09-0.82-0.27c-0.47-0.47-0.17-1.31,0.18-2.27c0.12-0.32,0.24-0.66,0.33-0.99
				c0.44-1.54,0.06-2-0.64-2.83c-0.12-0.14-0.24-0.29-0.36-0.45c-0.1-0.13-0.08-0.33,0.05-0.43c0.13-0.1,0.33-0.08,0.43,0.05
				c0.12,0.15,0.24,0.3,0.35,0.43c0.72,0.86,1.29,1.54,0.76,3.4c-0.1,0.35-0.22,0.69-0.35,1.03c-0.23,0.64-0.52,1.43-0.32,1.63
				c0.1,0.1,0.52,0.26,2.28-0.36c0.16-0.06,0.33,0.03,0.39,0.19c0.06,0.16-0.03,0.33-0.19,0.39
				C162.88,41.97,162.2,42.13,161.71,42.13z"/>
		</g>
		<g>
			<path class="st16" d="M161.22,43.7c0,0,2.57,0.04,4.29-0.84s-0.14,3.24-1.69,3.1C162.27,45.81,161.43,44.93,161.22,43.7z"/>
		</g>
		<g>
			<path class="st7" d="M176.73,37.57c-0.03,0-0.07-0.01-0.1-0.02c-0.16-0.05-0.25-0.23-0.19-0.39c0.15-0.44,0.14-0.77-0.04-0.99
				c-0.34-0.43-1.25-0.43-1.57-0.4c-0.17,0.01-0.32-0.1-0.34-0.27c-0.02-0.17,0.1-0.32,0.27-0.34c0.15-0.02,1.51-0.14,2.12,0.63
				c0.31,0.39,0.36,0.92,0.14,1.57C176.98,37.49,176.86,37.57,176.73,37.57z"/>
		</g>
		<g>
			
				<ellipse transform="matrix(0.9973 -0.0736 0.0736 0.9973 -2.2476 12.2696)" class="st9" cx="165.47" cy="36.65" rx="0.73" ry="1.01"/>
		</g>
		<g>
			
				<ellipse transform="matrix(0.9893 -0.1461 0.1461 0.9893 -3.7328 23.6979)" class="st9" cx="159.47" cy="37.26" rx="0.65" ry="0.91"/>
		</g>
	</g>
	<g>
		<path class="st18" d="M29.37,77.55h57.18c2.79,0,5.04,2.26,5.04,5.04v37.1v14.31c0,2.79-2.26,5.04-5.04,5.04H29.37
			c-2.79,0-5.04-2.26-5.04-5.04V119.7V82.6C24.32,79.81,26.58,77.55,29.37,77.55z"/>
		<path class="st19" d="M27.8,77.67v51.41c0,2.79,2.26,5.04,5.04,5.04h57.18c2.79,0,5.04-2.26,5.04-5.04V77.67
			c0-2.79-2.26-5.04-5.04-5.04H32.85C30.06,72.62,27.8,74.88,27.8,77.67z"/>
		<path class="st20" d="M27.8,120.28v8.8c0,2.79,2.26,5.04,5.04,5.04h57.18c2.79,0,5.04-2.26,5.04-5.04v-8.8H27.8z"/>
		<path class="st21" d="M37.01,85.8c0,0,3.88,2.11,10.06,2.95l3.85,1.77c0,0-3.59,2.78-6.19,4.23l-5.03-3.05L37.01,85.8z"/>
		<polygon class="st22" points="33.27,119.3 16.76,121.83 44.79,94.77 46.08,100.37 38.87,112.86 		"/>
		<polygon class="st23" points="37.05,85.52 41.69,89.91 44.79,94.77 16.76,121.83 10.82,113.11 10.82,111.13 		"/>
		<path class="st16" d="M86.06,99.06c0,0-3.03-3.48-6.96-4.15c-3.93-0.67-6.45-0.11-6.82-0.83c-0.37-0.72-20.6-1.9-20.6-1.9
			s-6.51,1.03-9.1,5.03c-2.59,4-4.92,14.53-3.28,16.52c1.65,1.99,7.79,3.33,8.39,7.48s0.52,11.89-0.3,12.92h32.85
			c0,0-0.42-10.51,0-11.88c0.42-1.36,4.24-2.59,4.07-8.99l4.07-6.27L86.06,99.06z"/>
		<path class="st24" d="M76.18,83.06c0,0-4.36,2.78-2.33,4.62s8.33,1.66,7.25,7.5c-0.81,4.33-4.59,7.62-6.49,9.03
			c-0.49,0.36-1.19,0.07-1.27-0.54l-2.84-21.88L76.18,83.06z"/>
		<path class="st24" d="M77.49,67.55c0,0,1.88-6.17-5.64-8.76c0,0-7.82-6.46-16.34,2.06s3,24.68,2.35,25.74
			c-0.65,1.06-7.45-0.87-8.26,5.93c0,0,5.32,9.79,15.64,1.75c9.1-7.1,2.67-11.52,2.84-13.45C68.25,78.89,77.49,67.55,77.49,67.55z"
			/>
		<path class="st25" d="M54.16,58.24c4.8-4.9,10.23-4.32,15.21-3.72c2.36,0.28-18.53,19.11-18.53,19.11S46.76,65.8,54.16,58.24z"/>
		<path class="st26" d="M56.58,83.35c-0.86-2.25-2.66-7.06-0.55-10.81c2.85-5.07,9.99-14.66,16.69-13.33
			c2.53,0.5,3.8,5.09,4.95,7.83c1.5-5.26,2.34-11.47-1.41-12.81c-9.87-3.53-22.92,12.94-25.97,20.94
			C47.71,81.9,54.5,83.13,56.58,83.35z"/>
		<g>
			<path class="st27" d="M50.52,74.85c3.09-8.08,15.94-23.99,25.7-20.5c3.69,1.32,2.84,7.53,1.41,12.56l0.05,0.12
				c1.46-5.15,2.52-11.55-1.37-12.94C66.4,50.55,53.41,67,50.29,75.16L50.52,74.85z"/>
		</g>
		<path class="st1" d="M63.69,103.01c-1.74,12.24-11.38,24.72-17.94,27.6c-9.63,4.24-6.06-19.72-6.06-19.72
			c3.37-1.45,10.32,1.69,10.61,1.62c0.29-0.05,8.23-8.55,8.95-10.41c0.71-1.85-2-3.05-2.77-4.21c-0.76-1.17-0.38-3.7-0.38-3.7
			s-1.33-3.81,0.38-5.1c1.72-1.28,5.25,0.53,5.25,0.53c0.18,1.71-2.97,0.14-3.32,0.78c-0.36,0.65,2.53,3.03,2.53,3.03
			s0.68-2.3,1.65-1.79c0.25,0.14,0.38,0.47,0.45,0.89c-0.36,0.49-0.73,0.83-1.09,0.98c0,0,0.39,0.45,1.06,1.05
			c-0.08,0.68-0.19,1.2-0.19,1.2C66.18,100.17,63.69,103.01,63.69,103.01z"/>
		<g>
			<path class="st28" d="M80.25,134.12l0.25-0.29c-0.79-4.22-0.11-11.25-0.04-12c5.56-4.88,3.61-7.95,2.32-9.98
				c-0.19-0.3-0.37-0.59-0.51-0.85c-1.01-1.95-1.97-9.26-1.98-9.34l0,0c0.04,0.3,0.45,7.5,1.48,9.49c0.14,0.27,0.35,0.7,0.53,1.02
				c1.15,2.05,3.33,4.55-2.1,9.3l-0.04,0.04l-0.01,0.05C80.15,121.65,79.42,129.68,80.25,134.12z"/>
		</g>
		<path class="st29" d="M59.24,91.56c0,0-0.04-0.99-0.46-1.29c-0.41-0.3-0.72-0.8-1.42-0.8c-0.7,0-5.41,0.65-6.44,1.05
			s-6.68,3.13-6.83,3.16l0.65,1.07c0,0,2.42-1.36,2.6-1.45c0.18-0.08,4.47-1.39,4.47-1.39s5.55-1.59,6.71-0.69L59.24,91.56z"/>
		<path class="st29" d="M57.83,88.95l-10.77-0.2l-3.98-0.76c0,0,9.12-0.94,13.67,0.51c0,0,2.75,0.3,3.18,1.11s0.21,1.26,0.21,1.26
			l-0.91,0.32C59.24,91.18,59.83,90.21,57.83,88.95z"/>
		<path class="st1" d="M82.96,93.6c1.75,1.65,3.6,12.91,3.6,12.91c-2.1-0.21-4.07,0.41-5.29,1.02c0.19,1.2,0.64,2.59,0.9,3.27
			c0.57,1.46,2.47,3.07,1.77,6.38c2.22,3.24,5.43,6.37,9.69,6.77c9.78,0.93,2.2-15.45,0.62-18.82c-1.58-3.36-6.59-12.39-6.52-16.07
			c0.07-3.67-1.75-9.54-1.96-10.06c-0.2-0.51-1.65-1.99-2.54-2.99c-0.89-0.99-2.06-0.96-2.06-0.96c-0.41-0.24-1.96-2.64-1.96-2.64
			c-2.37,0.24-2.64,8.76-2.64,8.76s0.55,1.48,0.88,4.46C77.78,88.62,81.21,91.95,82.96,93.6z"/>
		<g>
			<g>
				<polygon class="st30" points="80.78,83.63 82.31,78.45 74.55,71.76 71.82,76.42 79.84,83.92 				"/>
			</g>
			<g>
				<path class="st16" d="M74.62,72.19l7.37,6.35l-1.43,4.87l-0.65,0.2l-7.75-7.24L74.62,72.19 M74.48,71.34l-3.02,5.13l8.3,7.76
					l1.24-0.38l1.61-5.49L74.48,71.34L74.48,71.34z"/>
			</g>
		</g>
		<g>
			<path class="st10" d="M84.2,81.84c0,0-0.21-0.92-0.38-1.64c-0.16-0.67-0.21-0.89-1.54-1.7c-1.05-0.64-1.03-1.44-1-1.67
				c0.04-0.31,0.2-0.54,0.4-0.6c0.14-0.04,0.28,0,0.37,0.12c0.14,0.15,0.87,0.88,1.76,1.2l0.16,0.18c-0.54-0.19-1.73-0.64-2.17-0.95
				c-0.02,0.06-0.04,0.16-0.03,0.28c0.02,0.21,0.14,0.63,0.77,1.01c1.43,0.87,1.57,1.2,1.76,2.01C84.48,80.81,84.2,81.84,84.2,81.84
				L84.2,81.84z"/>
		</g>
		<g>
			<path class="st10" d="M81.47,76.91c-2.51-0.52-2.51-2.12-2.5-2.18l0.01-0.31l2.21,0.65l0,0l-1.64,0c0.15,0.4,0.61,1.06,2.03,1.35
				L81.47,76.91z"/>
		</g>
		<g>
			<path class="st10" d="M82.26,87.49c-0.01-0.03-0.53-2.55-2.42-2.55c-0.01,0-0.01,0-0.02,0l-0.19,0l-0.19-0.66l0.33-0.05
				l0.24,0.22C82.17,84.58,82.25,87.46,82.26,87.49L82.26,87.49z"/>
		</g>
		<g>
			<path class="st10" d="M85.23,92.12c-1.91-1.16-2.25-3.61-1.37-5.09c0.77-1.27,0.78-3.7,0.78-3.73h0.05
				c0.02,0.1,0.47,2.55-0.4,3.98C83.53,88.56,83.57,91.11,85.23,92.12L85.23,92.12z"/>
		</g>
		<g>
			<path class="st10" d="M88.8,119.78c-0.24,0-0.45-0.17-0.49-0.41l-1.93-12.81c-0.05-0.27-0.09,0,0.18-0.04
				c0,0,0.02-0.11,0.07,0.16l2.66,12.52c0.05,0.27-0.13,0.53-0.41,0.58C88.86,119.78,88.83,119.78,88.8,119.78z"/>
		</g>
		<g>
			<path class="st10" d="M41.21,119.52c-0.16,0-0.31-0.07-0.41-0.21c-0.16-0.22-0.11-0.54,0.12-0.7l9.59-6.22
				c0.22-0.16,0.04-0.4,0.2-0.17c0.16,0.22-0.12,0.48-0.35,0.64l-8.86,6.57C41.41,119.49,41.31,119.52,41.21,119.52z"/>
		</g>
		<path class="st1" d="M61.95,93.51c0,0,1.12,1.28,2.77,2.38c1.34,0.89,3.03,1.67,4.77,1.55c3.88-0.26,2.91-6.35,2.73-7.67
			c-0.18-1.32-0.09-4.68,1.77-5.25c0.94-0.29,2.01-0.3,2.86-0.85c0.91-0.58,1.07-1.58,1.16-2.58c0.11-1.19,0.48-2.23,0.72-3.39
			c0.25-1.19,0.38-2.42,0.28-3.64c-0.05-0.62-0.16-1.24-0.37-1.82c-0.09-0.24-0.93-1.5-0.89-1.61c0,0,0.54-1.52-0.49-3.07
			c-0.47-0.7-0.84-1.45-1.19-2.21c-0.41-0.9-0.93-1.75-1.58-2.49c-0.64-0.74-1.47-1.56-2.42-1.87c-1.69,1.64-2.75,4.01-2.35,6.39
			c0.62,3.75-1.48,6.41-1.7,8.63c-0.09,0.83-0.53,3.3-1.21,6.15C65.65,86.93,63.83,92.76,61.95,93.51z"/>
		<path class="st31" d="M61.95,93.51c0,0,1.12,1.28,2.77,2.38c0.52-2.53,2.32-11.18,2.77-11.25c0.53-0.07,3.8,0.47,4.96-0.18
			c0,0-2.86-0.2-5.66-2.32C65.65,86.93,63.83,92.76,61.95,93.51z"/>
		<g>
			<path class="st32" d="M73.85,84.56c0.32-0.1,0.84-0.08,1.17-0.15c0.65-0.13,1.33-0.26,1.91-0.63c0.96-0.62,1.13-1.66,1.22-2.68
				c0.07-0.76,0.24-1.45,0.43-2.18c0.1-0.38,0.2-0.78,0.28-1.19c0.28-1.37,0.37-2.57,0.28-3.68c-0.06-0.69-0.18-1.3-0.37-1.86
				c-0.04-0.11-0.19-0.36-0.42-0.74c-0.17-0.28-0.42-0.69-0.46-0.81c0.07-0.21,0.48-1.67-0.52-3.16c-0.4-0.59-0.89-1.21-1.3-2.13
				l0,0c0.42,0.93,0.67,1.68,1.07,2.28c0.98,1.47,0.48,2.94,0.48,2.95c-0.03,0.12,0.03,0.25,0.5,1.01c0.17,0.28,0.36,0.6,0.4,0.69
				c0.19,0.53,0.31,1.12,0.36,1.79c0.09,1.08,0,2.26-0.27,3.6c-0.08,0.4-0.18,0.8-0.28,1.18c-0.18,0.71-0.37,1.44-0.44,2.23
				c-0.09,0.99-0.24,1.93-1.09,2.47c-0.53,0.34-1.18,0.47-1.81,0.6C74.63,84.21,74.18,84.46,73.85,84.56L73.85,84.56z"/>
		</g>
		<path class="st33" d="M61.95,93.51c0,0,0.39,0.45,1.06,1.05c0.07-0.64,0.12-1.42,0.03-2.02C62.68,93.02,62.32,93.36,61.95,93.51z"
			/>
		<path class="st10" d="M63.01,94.55c0.45,0.41,1.04,0.88,1.71,1.33c0.52-2.53,2.32-11.18,2.77-11.25c0.53-0.07,3.8,0.47,4.96-0.18
			c0,0-2.86-0.2-5.66-2.32c-0.92,3.85-2.27,8.37-3.75,10.39C63.14,93.13,63.09,93.91,63.01,94.55z"/>
		<g>
			<g>
				<path class="st24" d="M73.7,68.69c0.07,0,0.14-0.03,0.2-0.08c0.11-0.11,0.11-0.28,0-0.39c-0.08-0.08-1.9-1.85-4.94-0.96
					c-0.15,0.04-0.23,0.2-0.19,0.34c0.04,0.15,0.2,0.23,0.34,0.19c2.71-0.8,4.32,0.76,4.39,0.82C73.56,68.66,73.63,68.69,73.7,68.69
					z"/>
			</g>
		</g>
		<g>
			<g>
				<path class="st24" d="M75.44,68.69c0.07,0,0.13-0.04,0.16-0.11c0.11-0.23,0.48-0.86,0.85-0.95c0.13-0.03,0.24,0,0.36,0.11
					c0.08,0.07,0.2,0.05,0.26-0.04c0.06-0.1,0.05-0.24-0.04-0.31c-0.2-0.18-0.43-0.24-0.67-0.19c-0.61,0.16-1.08,1.13-1.1,1.17
					c-0.05,0.11-0.02,0.24,0.07,0.3C75.38,68.68,75.41,68.69,75.44,68.69z"/>
			</g>
		</g>
		<g>
			<path class="st34" d="M74.94,74.73c0.01,0,0.03,0,0.04-0.01c0.2-0.06,1.96-0.64,2.17-1.44c0.04-0.16,0.04-0.4-0.21-0.65
				c-0.9-0.94-1.55-3.22-1.56-3.25c-0.02-0.07-0.1-0.12-0.17-0.09c-0.07,0.02-0.12,0.1-0.09,0.17c0.03,0.1,0.68,2.38,1.63,3.36
				c0.13,0.13,0.17,0.26,0.14,0.4c-0.14,0.55-1.48,1.08-1.98,1.24c-0.07,0.02-0.11,0.1-0.09,0.17
				C74.83,74.7,74.88,74.73,74.94,74.73z"/>
		</g>
		<g>
			<path class="st16" d="M77.31,75.72c0,0,0.71,1.13-5.78,1.44c0.02,0,0.25,0.41,0.27,0.44c0.55,0.77,1.36,1.34,2.25,1.64
				c0.79,0.27,2,0.55,2.8,0.24c0.58-0.23-0.01-0.94,0.11-1.5C77.12,77.16,77.69,76.45,77.31,75.72z"/>
		</g>
		<g>
			
				<ellipse transform="matrix(0.9704 -0.2416 0.2416 0.9704 -14.7936 19.5104)" class="st24" cx="72.17" cy="70.09" rx="0.72" ry="0.97"/>
		</g>
		<g>
			
				<ellipse transform="matrix(0.9704 -0.2416 0.2416 0.9704 -14.5844 20.6148)" class="st24" cx="76.78" cy="69.78" rx="0.53" ry="0.77"/>
		</g>
		<g>
			<path class="st35" d="M47.74,98.11c-0.13-0.14-0.75-0.81-0.61-1.4c-0.14-0.07-0.46-0.14-0.74-0.17l0.06-0.72
				c0.4,0.04,1.12,0.15,1.35,0.54c0.09,0.16,0.1,0.34,0.03,0.51c-0.04,0.09,0.15,0.46,0.42,0.74L47.74,98.11z"/>
		</g>
		<g>
			<path class="st35" d="M46.35,100.68c-0.18-0.06-1.03-0.38-1.18-0.98c-0.16,0.01-0.47,0.08-0.73,0.19l-0.27-0.67
				c0.38-0.15,1.06-0.37,1.44-0.13c0.15,0.1,0.25,0.25,0.26,0.44c0.01,0.1,0.34,0.34,0.71,0.47L46.35,100.68z"/>
		</g>
		<g>
			<path class="st35" d="M51.56,99.23c-0.14,0.12-0.85,0.69-1.44,0.52c-0.08,0.14-0.17,0.45-0.21,0.72l-0.71-0.11
				c0.06-0.4,0.23-1.1,0.62-1.31c0.16-0.08,0.34-0.08,0.51,0c0.09,0.05,0.47-0.12,0.76-0.37L51.56,99.23z"/>
		</g>
		<g>
			<path class="st35" d="M49.9,97.21c-0.01-0.19-0.06-1.1,0.43-1.47c-0.07-0.14-0.26-0.4-0.46-0.6l0.51-0.51
				c0.29,0.29,0.76,0.83,0.69,1.27c-0.03,0.18-0.14,0.33-0.3,0.41c-0.09,0.05-0.18,0.45-0.15,0.84L49.9,97.21z"/>
		</g>
		<g>
			<path class="st35" d="M53.96,99.96c-0.01-0.19-0.06-1.1,0.43-1.47c-0.07-0.14-0.26-0.4-0.46-0.6l0.51-0.51
				c0.29,0.29,0.76,0.83,0.69,1.27c-0.03,0.18-0.14,0.33-0.3,0.41c-0.09,0.05-0.18,0.45-0.15,0.84L53.96,99.96z"/>
		</g>
		<g>
			<path class="st35" d="M52.05,103.26c-0.01-0.19-0.06-1.1,0.43-1.47c-0.07-0.14-0.26-0.4-0.46-0.6l0.51-0.51
				c0.29,0.29,0.76,0.83,0.69,1.27c-0.03,0.18-0.14,0.33-0.3,0.41c-0.09,0.05-0.18,0.45-0.15,0.84L52.05,103.26z"/>
		</g>
		<g>
			<path class="st35" d="M44.8,105.48c-0.01-0.19-0.06-1.1,0.43-1.47c-0.07-0.14-0.26-0.4-0.46-0.6l0.51-0.51
				c0.29,0.29,0.76,0.83,0.69,1.27c-0.03,0.18-0.14,0.33-0.3,0.41c-0.09,0.05-0.18,0.45-0.15,0.84L44.8,105.48z"/>
		</g>
		<g>
			<path class="st35" d="M41.91,102.91c-0.01-0.19-0.06-1.1,0.43-1.47c-0.07-0.14-0.26-0.4-0.46-0.6l0.51-0.51
				c0.29,0.29,0.76,0.83,0.69,1.27c-0.03,0.18-0.14,0.33-0.3,0.41c-0.09,0.05-0.18,0.45-0.15,0.84L41.91,102.91z"/>
		</g>
		<g>
			<path class="st35" d="M43.6,98.5c-0.01-0.19-0.06-1.1,0.43-1.47c-0.07-0.14-0.26-0.4-0.46-0.6l0.51-0.51
				c0.29,0.29,0.76,0.83,0.69,1.27c-0.03,0.18-0.14,0.33-0.3,0.41c-0.09,0.05-0.18,0.45-0.15,0.84L43.6,98.5z"/>
		</g>
		<g>
			<path class="st35" d="M48.28,103.26c-0.01-0.19-0.06-1.1,0.43-1.47c-0.07-0.14-0.26-0.4-0.46-0.6l0.51-0.51
				c0.29,0.29,0.76,0.83,0.69,1.27c-0.03,0.18-0.14,0.33-0.3,0.41c-0.09,0.05-0.18,0.45-0.15,0.84L48.28,103.26z"/>
		</g>
		<g>
			<path class="st35" d="M50.98,106.77c-0.01-0.19-0.06-1.1,0.43-1.47c-0.07-0.14-0.26-0.4-0.46-0.6l0.51-0.51
				c0.29,0.29,0.76,0.83,0.69,1.27c-0.03,0.18-0.14,0.33-0.3,0.41c-0.09,0.05-0.18,0.45-0.15,0.84L50.98,106.77z"/>
		</g>
		<g>
			<path class="st35" d="M50.98,110.27c-0.01-0.19-0.06-1.1,0.43-1.47c-0.07-0.14-0.26-0.4-0.46-0.6l0.51-0.51
				c0.29,0.29,0.76,0.83,0.69,1.27c-0.03,0.18-0.14,0.33-0.3,0.41c-0.09,0.05-0.18,0.45-0.15,0.84L50.98,110.27z"/>
		</g>
		<g>
			<path class="st35" d="M46.75,109.87c-0.01-0.19-0.06-1.1,0.43-1.47c-0.07-0.14-0.26-0.4-0.46-0.6l0.51-0.51
				c0.29,0.29,0.76,0.83,0.69,1.27c-0.03,0.18-0.14,0.33-0.3,0.41c-0.09,0.05-0.18,0.45-0.15,0.84L46.75,109.87z"/>
		</g>
		<g>
			<path class="st35" d="M41.91,108.3c-0.01-0.19-0.06-1.1,0.43-1.47c-0.07-0.14-0.26-0.4-0.46-0.6l0.51-0.51
				c0.29,0.29,0.76,0.83,0.69,1.27c-0.03,0.18-0.14,0.33-0.3,0.41c-0.09,0.05-0.18,0.45-0.15,0.84L41.91,108.3z"/>
		</g>
		<g>
			<path class="st35" d="M54.56,106.09c-0.01-0.19-0.06-1.1,0.43-1.47c-0.07-0.14-0.26-0.4-0.46-0.6l0.51-0.51
				c0.29,0.29,0.76,0.83,0.69,1.27c-0.03,0.18-0.14,0.33-0.3,0.41c-0.09,0.05-0.18,0.45-0.15,0.84L54.56,106.09z"/>
		</g>
		<g>
			<path class="st35" d="M57.38,103.52c-0.01-0.19-0.06-1.1,0.43-1.47c-0.07-0.14-0.26-0.4-0.46-0.6l0.51-0.51
				c0.29,0.29,0.76,0.83,0.69,1.27c-0.03,0.18-0.14,0.33-0.3,0.41c-0.09,0.05-0.18,0.45-0.15,0.84L57.38,103.52z"/>
		</g>
		<g>
			<path class="st35" d="M65.51,101.12c-0.01-0.19-0.06-1.1,0.43-1.47c-0.07-0.14-0.26-0.4-0.46-0.6l0.51-0.51
				c0.29,0.29,0.76,0.83,0.69,1.27c-0.03,0.18-0.14,0.33-0.3,0.41c-0.09,0.05-0.18,0.45-0.15,0.84L65.51,101.12z"/>
		</g>
		<g>
			<path class="st35" d="M68.33,102.23c-0.01-0.19-0.06-1.1,0.43-1.47c-0.07-0.14-0.26-0.4-0.46-0.6l0.51-0.51
				c0.29,0.29,0.76,0.83,0.69,1.27c-0.03,0.18-0.14,0.33-0.3,0.41c-0.09,0.05-0.18,0.45-0.15,0.84L68.33,102.23z"/>
		</g>
		<g>
			<path class="st35" d="M71.24,101.25c-0.01-0.19-0.06-1.1,0.43-1.47c-0.07-0.14-0.26-0.4-0.46-0.6l0.51-0.51
				c0.29,0.29,0.76,0.83,0.69,1.27c-0.03,0.18-0.14,0.33-0.3,0.41c-0.09,0.05-0.18,0.45-0.15,0.84L71.24,101.25z"/>
		</g>
		<g>
			<path class="st35" d="M64.86,106.22c-0.01-0.19-0.06-1.1,0.43-1.47c-0.07-0.14-0.26-0.4-0.46-0.6l0.51-0.51
				c0.29,0.29,0.76,0.83,0.69,1.27c-0.03,0.18-0.14,0.33-0.3,0.41c-0.09,0.05-0.18,0.45-0.15,0.84L64.86,106.22z"/>
		</g>
		<g>
			<path class="st35" d="M67.68,107.33c-0.01-0.19-0.06-1.1,0.43-1.47c-0.07-0.14-0.26-0.4-0.46-0.6l0.51-0.51
				c0.29,0.29,0.76,0.83,0.69,1.27c-0.03,0.18-0.14,0.33-0.3,0.41c-0.09,0.05-0.18,0.45-0.15,0.84L67.68,107.33z"/>
		</g>
		<g>
			<path class="st35" d="M70.59,106.35c-0.01-0.19-0.06-1.1,0.43-1.47c-0.07-0.14-0.26-0.4-0.46-0.6l0.51-0.51
				c0.29,0.29,0.76,0.83,0.69,1.27c-0.03,0.18-0.14,0.33-0.3,0.41c-0.09,0.05-0.18,0.45-0.15,0.84L70.59,106.35z"/>
		</g>
		<g>
			<path class="st35" d="M73.58,108.44c-0.06-0.18-0.35-1.04,0.02-1.53c-0.1-0.12-0.36-0.32-0.6-0.45l0.35-0.63
				c0.35,0.2,0.95,0.6,1.01,1.04c0.02,0.18-0.04,0.35-0.18,0.48c-0.07,0.07-0.05,0.48,0.08,0.84L73.58,108.44z"/>
		</g>
		<g>
			<path class="st35" d="M76.59,107.4c-0.06-0.18-0.35-1.04,0.02-1.53c-0.1-0.12-0.36-0.32-0.6-0.45l0.35-0.63
				c0.35,0.2,0.95,0.6,1.01,1.04c0.02,0.18-0.04,0.35-0.18,0.48c-0.07,0.07-0.05,0.48,0.08,0.84L76.59,107.4z"/>
		</g>
		<g>
			<path class="st35" d="M79.14,107.03c-0.06-0.18-0.35-1.04,0.02-1.53c-0.1-0.12-0.36-0.32-0.6-0.45l0.35-0.63
				c0.35,0.2,0.95,0.6,1.01,1.04c0.02,0.18-0.04,0.35-0.18,0.48c-0.07,0.07-0.05,0.48,0.08,0.84L79.14,107.03z"/>
		</g>
		<g>
			<path class="st35" d="M62.98,111.56c-0.01-0.19-0.06-1.1,0.43-1.47c-0.07-0.14-0.26-0.4-0.46-0.6l0.51-0.51
				c0.29,0.29,0.76,0.83,0.69,1.27c-0.03,0.18-0.14,0.33-0.3,0.41c-0.09,0.05-0.18,0.45-0.15,0.84L62.98,111.56z"/>
		</g>
		<g>
			<path class="st35" d="M65.79,112.67c-0.01-0.19-0.06-1.1,0.43-1.47c-0.07-0.14-0.26-0.4-0.46-0.6l0.51-0.51
				c0.29,0.29,0.76,0.83,0.69,1.27c-0.03,0.18-0.14,0.33-0.3,0.41c-0.09,0.05-0.18,0.45-0.15,0.84L65.79,112.67z"/>
		</g>
		<g>
			<path class="st35" d="M68.71,111.69c-0.01-0.19-0.06-1.1,0.43-1.47c-0.07-0.14-0.26-0.4-0.46-0.6l0.51-0.51
				c0.29,0.29,0.76,0.83,0.69,1.27c-0.03,0.18-0.14,0.33-0.3,0.41c-0.09,0.05-0.18,0.45-0.15,0.84L68.71,111.69z"/>
		</g>
		<g>
			<path class="st35" d="M71.7,112.86c-0.06-0.18-0.35-1.04,0.02-1.53c-0.1-0.12-0.36-0.32-0.6-0.45l0.35-0.63
				c0.35,0.2,0.95,0.6,1.01,1.04c0.02,0.18-0.04,0.35-0.18,0.48c-0.07,0.07-0.05,0.48,0.08,0.84L71.7,112.86z"/>
		</g>
		<g>
			<path class="st35" d="M74.71,112.74c-0.06-0.18-0.35-1.04,0.02-1.53c-0.1-0.12-0.36-0.32-0.6-0.45l0.35-0.63
				c0.35,0.2,0.95,0.6,1.01,1.04c0.02,0.18-0.04,0.35-0.18,0.48c-0.07,0.07-0.05,0.48,0.08,0.84L74.71,112.74z"/>
		</g>
		<g>
			<path class="st35" d="M77.25,112.37c-0.06-0.18-0.35-1.04,0.02-1.53c-0.1-0.12-0.36-0.32-0.6-0.45l0.35-0.63
				c0.35,0.2,0.95,0.6,1.01,1.04c0.02,0.18-0.04,0.35-0.18,0.48c-0.07,0.07-0.05,0.48,0.08,0.84L77.25,112.37z"/>
		</g>
		<g>
			<path class="st35" d="M79.82,111.71c-0.06-0.18-0.35-1.04,0.02-1.53c-0.1-0.12-0.36-0.32-0.6-0.45l0.35-0.63
				c0.35,0.2,0.95,0.6,1.01,1.04c0.02,0.18-0.04,0.35-0.18,0.48c-0.07,0.07-0.05,0.48,0.08,0.84L79.82,111.71z"/>
		</g>
		<g>
			<path class="st35" d="M61.09,116.4c-0.01-0.19-0.06-1.1,0.43-1.47c-0.07-0.14-0.26-0.4-0.46-0.6l0.51-0.51
				c0.29,0.29,0.76,0.83,0.69,1.27c-0.03,0.18-0.14,0.33-0.3,0.41c-0.09,0.05-0.18,0.45-0.15,0.84L61.09,116.4z"/>
		</g>
		<g>
			<path class="st35" d="M63.9,117.51c-0.01-0.19-0.06-1.1,0.43-1.47c-0.07-0.14-0.26-0.4-0.46-0.6l0.51-0.51
				c0.29,0.29,0.76,0.83,0.69,1.27c-0.03,0.18-0.14,0.33-0.3,0.41c-0.09,0.05-0.18,0.45-0.15,0.84L63.9,117.51z"/>
		</g>
		<g>
			<path class="st35" d="M66.81,116.54c-0.01-0.19-0.06-1.1,0.43-1.47c-0.07-0.14-0.26-0.4-0.46-0.6l0.51-0.51
				c0.29,0.29,0.76,0.83,0.69,1.27c-0.03,0.18-0.14,0.33-0.3,0.41c-0.09,0.05-0.18,0.45-0.15,0.84L66.81,116.54z"/>
		</g>
		<g>
			<path class="st35" d="M69.81,117.71c-0.06-0.18-0.35-1.04,0.02-1.53c-0.1-0.12-0.36-0.32-0.6-0.45l0.35-0.63
				c0.35,0.2,0.95,0.6,1.01,1.04c0.02,0.18-0.04,0.35-0.18,0.48c-0.07,0.07-0.05,0.48,0.08,0.84L69.81,117.71z"/>
		</g>
		<g>
			<path class="st35" d="M72.82,117.58c-0.06-0.18-0.35-1.04,0.02-1.53c-0.1-0.12-0.36-0.32-0.6-0.45l0.35-0.63
				c0.35,0.2,0.95,0.6,1.01,1.04c0.02,0.18-0.04,0.35-0.18,0.48c-0.07,0.07-0.05,0.48,0.08,0.84L72.82,117.58z"/>
		</g>
		<g>
			<path class="st35" d="M75.36,117.22c-0.06-0.18-0.35-1.04,0.02-1.53c-0.1-0.12-0.36-0.32-0.6-0.45l0.35-0.63
				c0.35,0.2,0.95,0.6,1.01,1.04c0.02,0.18-0.04,0.35-0.18,0.48c-0.07,0.07-0.05,0.48,0.08,0.84L75.36,117.22z"/>
		</g>
		<g>
			<path class="st35" d="M77.93,116.55c-0.06-0.18-0.35-1.04,0.02-1.53c-0.1-0.12-0.36-0.32-0.6-0.45l0.35-0.63
				c0.35,0.2,0.95,0.6,1.01,1.04c0.02,0.18-0.04,0.35-0.18,0.48c-0.07,0.07-0.05,0.48,0.08,0.84L77.93,116.55z"/>
		</g>
		<g>
			<path class="st35" d="M81.29,116.42c-0.06-0.18-0.35-1.04,0.02-1.53c-0.1-0.12-0.36-0.32-0.6-0.45l0.35-0.63
				c0.35,0.2,0.95,0.6,1.01,1.04c0.02,0.18-0.04,0.35-0.18,0.48c-0.07,0.07-0.05,0.48,0.08,0.84L81.29,116.42z"/>
		</g>
		<g>
			<path class="st35" d="M58.78,120.42c0-0.19,0.01-1.1,0.52-1.44c-0.06-0.15-0.24-0.42-0.42-0.63l0.54-0.48
				c0.27,0.3,0.71,0.88,0.61,1.31c-0.04,0.18-0.16,0.32-0.33,0.39c-0.09,0.04-0.2,0.44-0.2,0.82L58.78,120.42z"/>
		</g>
		<g>
			<path class="st35" d="M61.52,121.7c0-0.19,0.01-1.1,0.52-1.44c-0.06-0.15-0.24-0.42-0.42-0.63l0.54-0.48
				c0.27,0.3,0.71,0.88,0.61,1.31c-0.04,0.18-0.16,0.32-0.33,0.39c-0.09,0.04-0.2,0.44-0.2,0.82L61.52,121.7z"/>
		</g>
		<g>
			<path class="st35" d="M64.49,120.9c0-0.19,0.01-1.1,0.52-1.44c-0.06-0.15-0.24-0.42-0.42-0.63l0.54-0.48
				c0.27,0.3,0.71,0.88,0.61,1.31c-0.04,0.18-0.16,0.32-0.33,0.39c-0.09,0.04-0.2,0.44-0.2,0.82L64.49,120.9z"/>
		</g>
		<g>
			<path class="st35" d="M67.41,122.26c-0.05-0.18-0.28-1.06,0.12-1.52c-0.1-0.13-0.34-0.34-0.57-0.49l0.39-0.61
				c0.34,0.22,0.92,0.66,0.94,1.1c0.01,0.18-0.07,0.35-0.21,0.46c-0.08,0.06-0.08,0.47,0.03,0.85L67.41,122.26z"/>
		</g>
		<g>
			<path class="st35" d="M70.42,122.32c-0.05-0.18-0.28-1.06,0.12-1.52c-0.1-0.13-0.34-0.34-0.57-0.49l0.39-0.61
				c0.34,0.22,0.92,0.66,0.94,1.1c0.01,0.18-0.07,0.35-0.21,0.46c-0.08,0.06-0.08,0.47,0.03,0.85L70.42,122.32z"/>
		</g>
		<g>
			<path class="st35" d="M72.98,122.11c-0.05-0.18-0.28-1.06,0.12-1.52c-0.1-0.13-0.34-0.34-0.57-0.49l0.39-0.61
				c0.34,0.22,0.92,0.66,0.94,1.1c0.01,0.18-0.07,0.35-0.21,0.46c-0.08,0.06-0.08,0.47,0.03,0.85L72.98,122.11z"/>
		</g>
		<g>
			<path class="st35" d="M75.58,121.6c-0.05-0.18-0.28-1.06,0.12-1.52c-0.1-0.13-0.34-0.34-0.57-0.49l0.39-0.61
				c0.34,0.22,0.92,0.66,0.94,1.1c0.01,0.18-0.07,0.35-0.21,0.46c-0.08,0.06-0.08,0.47,0.03,0.85L75.58,121.6z"/>
		</g>
		<g>
			<path class="st35" d="M78.95,121.68c-0.05-0.18-0.28-1.06,0.12-1.52c-0.1-0.13-0.34-0.34-0.57-0.49l0.39-0.61
				c0.34,0.22,0.92,0.66,0.94,1.1c0.01,0.18-0.07,0.35-0.21,0.46c-0.08,0.06-0.08,0.47,0.03,0.85L78.95,121.68z"/>
		</g>
		<g>
			<path class="st35" d="M55.85,124.86c0-0.19,0.01-1.1,0.52-1.44c-0.06-0.15-0.24-0.42-0.42-0.63l0.54-0.48
				c0.27,0.3,0.71,0.88,0.61,1.31c-0.04,0.18-0.16,0.32-0.33,0.39c-0.09,0.04-0.2,0.44-0.2,0.82L55.85,124.86z"/>
		</g>
		<g>
			<path class="st35" d="M58.59,126.14c0-0.19,0.01-1.1,0.52-1.44c-0.06-0.15-0.24-0.42-0.42-0.63l0.54-0.48
				c0.27,0.3,0.71,0.88,0.61,1.31c-0.04,0.18-0.16,0.32-0.33,0.39c-0.09,0.04-0.2,0.44-0.2,0.82L58.59,126.14z"/>
		</g>
		<g>
			<path class="st35" d="M61.56,125.34c0-0.19,0.01-1.1,0.52-1.44c-0.06-0.15-0.24-0.42-0.42-0.63l0.54-0.48
				c0.27,0.3,0.71,0.88,0.61,1.31c-0.04,0.18-0.16,0.32-0.33,0.39c-0.09,0.04-0.2,0.44-0.2,0.82L61.56,125.34z"/>
		</g>
		<g>
			<path class="st35" d="M64.47,126.7c-0.05-0.18-0.28-1.06,0.12-1.52c-0.1-0.13-0.34-0.34-0.57-0.49l0.39-0.61
				c0.34,0.22,0.92,0.66,0.94,1.1c0.01,0.18-0.07,0.35-0.21,0.46c-0.08,0.06-0.08,0.47,0.03,0.85L64.47,126.7z"/>
		</g>
		<g>
			<path class="st35" d="M67.48,126.76c-0.05-0.18-0.28-1.06,0.12-1.52c-0.1-0.13-0.34-0.34-0.57-0.49l0.39-0.61
				c0.34,0.22,0.92,0.66,0.94,1.1c0.01,0.18-0.07,0.35-0.21,0.46c-0.08,0.06-0.08,0.47,0.03,0.85L67.48,126.76z"/>
		</g>
		<g>
			<path class="st35" d="M70.05,126.55c-0.05-0.18-0.28-1.06,0.12-1.52c-0.1-0.13-0.34-0.34-0.57-0.49l0.39-0.61
				c0.34,0.22,0.92,0.66,0.94,1.1c0.01,0.18-0.07,0.35-0.21,0.46c-0.08,0.06-0.08,0.47,0.03,0.85L70.05,126.55z"/>
		</g>
		<g>
			<path class="st35" d="M72.65,126.04c-0.05-0.18-0.28-1.06,0.12-1.52c-0.1-0.13-0.34-0.34-0.57-0.49l0.39-0.61
				c0.34,0.22,0.92,0.66,0.94,1.1c0.01,0.18-0.07,0.35-0.21,0.46c-0.08,0.06-0.08,0.47,0.03,0.85L72.65,126.04z"/>
		</g>
		<g>
			<path class="st35" d="M75.65,126.04c-0.05-0.18-0.28-1.06,0.12-1.52c-0.1-0.13-0.34-0.34-0.57-0.49l0.39-0.61
				c0.34,0.22,0.92,0.66,0.94,1.1c0.01,0.18-0.07,0.35-0.21,0.46c-0.08,0.06-0.08,0.47,0.03,0.85L75.65,126.04z"/>
		</g>
		<g>
			<path class="st35" d="M52.57,128.68c0-0.19,0.01-1.1,0.52-1.44c-0.06-0.15-0.24-0.42-0.42-0.63l0.54-0.48
				c0.27,0.3,0.71,0.88,0.61,1.31c-0.04,0.18-0.16,0.32-0.33,0.39c-0.09,0.04-0.2,0.44-0.2,0.82L52.57,128.68z"/>
		</g>
		<g>
			<path class="st35" d="M55.32,129.96c0-0.19,0.01-1.1,0.52-1.44c-0.06-0.15-0.24-0.42-0.42-0.63l0.54-0.48
				c0.27,0.3,0.71,0.88,0.61,1.31c-0.04,0.18-0.16,0.32-0.33,0.39c-0.09,0.04-0.2,0.44-0.2,0.82L55.32,129.96z"/>
		</g>
		<g>
			<path class="st35" d="M58.28,129.16c0-0.19,0.01-1.1,0.52-1.44c-0.06-0.15-0.24-0.42-0.42-0.63l0.54-0.48
				c0.27,0.3,0.71,0.88,0.61,1.31c-0.04,0.18-0.16,0.32-0.33,0.39c-0.09,0.04-0.2,0.44-0.2,0.82L58.28,129.16z"/>
		</g>
		<g>
			<path class="st35" d="M61.2,130.52c-0.05-0.18-0.28-1.06,0.12-1.52c-0.1-0.13-0.34-0.34-0.57-0.49l0.39-0.61
				c0.34,0.22,0.92,0.66,0.94,1.1c0.01,0.18-0.07,0.35-0.21,0.46c-0.08,0.06-0.08,0.47,0.03,0.85L61.2,130.52z"/>
		</g>
		<g>
			<path class="st35" d="M64.21,130.58c-0.05-0.18-0.28-1.06,0.12-1.52c-0.1-0.13-0.34-0.34-0.57-0.49l0.39-0.61
				c0.34,0.22,0.92,0.66,0.94,1.1c0.01,0.18-0.07,0.35-0.21,0.46c-0.08,0.06-0.08,0.47,0.03,0.85L64.21,130.58z"/>
		</g>
		<g>
			<path class="st35" d="M66.77,130.37c-0.05-0.18-0.28-1.06,0.12-1.52c-0.1-0.13-0.34-0.34-0.57-0.49l0.39-0.61
				c0.34,0.22,0.92,0.66,0.94,1.1c0.01,0.18-0.07,0.35-0.21,0.46c-0.08,0.06-0.08,0.47,0.03,0.85L66.77,130.37z"/>
		</g>
		<g>
			<path class="st35" d="M69.37,129.86c-0.05-0.18-0.28-1.06,0.12-1.52c-0.1-0.13-0.34-0.34-0.57-0.49l0.39-0.61
				c0.34,0.22,0.92,0.66,0.94,1.1c0.01,0.18-0.07,0.35-0.21,0.46c-0.08,0.06-0.08,0.47,0.03,0.85L69.37,129.86z"/>
		</g>
		<g>
			<path class="st35" d="M72.74,129.94c-0.05-0.18-0.28-1.06,0.12-1.52c-0.1-0.13-0.34-0.34-0.57-0.49l0.39-0.61
				c0.34,0.22,0.92,0.66,0.94,1.1c0.01,0.18-0.07,0.35-0.21,0.46c-0.08,0.06-0.08,0.47,0.03,0.85L72.74,129.94z"/>
		</g>
		<g>
			<path class="st35" d="M73.92,133.41c-0.05-0.18-0.28-1.06,0.12-1.52c-0.1-0.13-0.34-0.34-0.57-0.49l0.39-0.61
				c0.34,0.22,0.92,0.66,0.94,1.1c0.01,0.18-0.07,0.35-0.21,0.46c-0.08,0.06-0.08,0.47,0.03,0.85L73.92,133.41z"/>
		</g>
		<g>
			<path class="st35" d="M77.83,133.54c-0.05-0.18-0.28-1.06,0.12-1.52c-0.1-0.13-0.34-0.34-0.57-0.49l0.39-0.61
				c0.34,0.22,0.92,0.66,0.94,1.1c0.01,0.18-0.07,0.35-0.21,0.46c-0.08,0.06-0.08,0.47,0.03,0.85L77.83,133.54z"/>
		</g>
		<g>
			<path class="st35" d="M76.83,130.58c-0.05-0.18-0.28-1.06,0.12-1.52c-0.1-0.13-0.34-0.34-0.57-0.49l0.39-0.61
				c0.34,0.22,0.92,0.66,0.94,1.1c0.01,0.18-0.07,0.35-0.21,0.46c-0.08,0.06-0.08,0.47,0.03,0.85L76.83,130.58z"/>
		</g>
		<g>
			<path class="st35" d="M78.42,126.76c-0.06-0.18-0.35-1.04,0.03-1.53c-0.1-0.12-0.36-0.32-0.6-0.45l0.36-0.63
				c0.35,0.2,0.95,0.6,1,1.05c0.02,0.18-0.04,0.35-0.18,0.48c-0.07,0.07-0.05,0.48,0.08,0.84L78.42,126.76z"/>
		</g>
		<g>
			<path class="st35" d="M49.68,132.23c0-0.19,0.01-1.1,0.52-1.44c-0.06-0.15-0.24-0.42-0.42-0.63l0.54-0.48
				c0.27,0.3,0.71,0.88,0.61,1.31c-0.04,0.18-0.16,0.32-0.33,0.39c-0.09,0.04-0.2,0.44-0.2,0.82L49.68,132.23z"/>
		</g>
		<g>
			<path class="st35" d="M52.43,133.5c0-0.19,0.01-1.1,0.52-1.44c-0.06-0.15-0.24-0.42-0.42-0.63l0.54-0.48
				c0.27,0.3,0.71,0.88,0.61,1.31c-0.04,0.18-0.16,0.32-0.33,0.39c-0.09,0.04-0.2,0.44-0.2,0.82L52.43,133.5z"/>
		</g>
		<g>
			<path class="st35" d="M55.39,132.71c0-0.19,0.01-1.1,0.52-1.44c-0.06-0.15-0.24-0.42-0.42-0.63l0.54-0.48
				c0.27,0.3,0.71,0.88,0.61,1.31c-0.04,0.18-0.16,0.32-0.33,0.39c-0.09,0.04-0.2,0.44-0.2,0.82L55.39,132.71z"/>
		</g>
		<g>
			<path class="st35" d="M58.57,133.41c-0.05-0.18-0.28-1.06,0.12-1.52c-0.1-0.13-0.34-0.34-0.57-0.49l0.39-0.61
				c0.34,0.22,0.92,0.66,0.94,1.1c0.01,0.18-0.07,0.35-0.21,0.46c-0.08,0.06-0.08,0.47,0.03,0.85L58.57,133.41z"/>
		</g>
		<g>
			<path class="st35" d="M61.32,134.12c-0.05-0.18-0.28-1.06,0.12-1.52c-0.1-0.13-0.34-0.34-0.57-0.49l0.39-0.61
				c0.34,0.22,0.92,0.66,0.94,1.1c0.01,0.18-0.07,0.35-0.21,0.46c-0.08,0.06-0.08,0.47,0.03,0.85L61.32,134.12z"/>
		</g>
		<g>
			<path class="st35" d="M63.88,133.91c-0.05-0.18-0.28-1.06,0.12-1.52c-0.1-0.13-0.34-0.34-0.57-0.49l0.39-0.61
				c0.34,0.22,0.92,0.66,0.94,1.1c0.01,0.18-0.07,0.35-0.21,0.46c-0.08,0.06-0.08,0.47,0.03,0.85L63.88,133.91z"/>
		</g>
		<g>
			<path class="st35" d="M66.48,133.41c-0.05-0.18-0.28-1.06,0.12-1.52c-0.1-0.13-0.34-0.34-0.57-0.49l0.39-0.61
				c0.34,0.22,0.92,0.66,0.94,1.1c0.01,0.18-0.07,0.35-0.21,0.46c-0.08,0.06-0.08,0.47,0.03,0.85L66.48,133.41z"/>
		</g>
		<g>
			<path class="st35" d="M69.85,133.48c-0.05-0.18-0.28-1.06,0.12-1.52c-0.1-0.13-0.34-0.34-0.57-0.49l0.39-0.61
				c0.34,0.22,0.92,0.66,0.94,1.1c0.01,0.18-0.07,0.35-0.21,0.46c-0.08,0.06-0.08,0.47,0.03,0.85L69.85,133.48z"/>
		</g>
		<g>
			<path class="st35" d="M81.42,99.49c-0.01-0.19-0.06-1.1,0.43-1.47c-0.07-0.14-0.26-0.4-0.46-0.6l0.51-0.51
				c0.29,0.29,0.76,0.83,0.69,1.27c-0.03,0.18-0.14,0.33-0.3,0.41c-0.09,0.05-0.18,0.45-0.15,0.84L81.42,99.49z"/>
		</g>
		<g>
			<path class="st35" d="M83.93,101.75c-0.01-0.19-0.06-1.1,0.43-1.47c-0.07-0.14-0.26-0.4-0.46-0.6l0.51-0.51
				c0.29,0.29,0.76,0.83,0.69,1.27c-0.03,0.18-0.14,0.33-0.3,0.41c-0.09,0.05-0.18,0.45-0.15,0.84L83.93,101.75z"/>
		</g>
		<g>
			<path class="st35" d="M81.93,104.54c-0.01-0.19-0.06-1.1,0.43-1.47c-0.07-0.14-0.26-0.4-0.46-0.6l0.51-0.51
				c0.29,0.29,0.76,0.83,0.69,1.27c-0.03,0.18-0.14,0.33-0.3,0.41c-0.09,0.05-0.18,0.45-0.15,0.84L81.93,104.54z"/>
		</g>
		<g>
			<path class="st35" d="M84.22,106.09c-0.01-0.19-0.06-1.1,0.43-1.47c-0.07-0.14-0.26-0.4-0.46-0.6l0.51-0.51
				c0.29,0.29,0.76,0.83,0.69,1.27c-0.03,0.18-0.14,0.33-0.3,0.41c-0.09,0.05-0.18,0.45-0.15,0.84L84.22,106.09z"/>
		</g>
		<path class="st33" d="M63.01,94.56c-0.08,0.68-0.19,1.2-0.19,1.2l-1.88-2.33c0,0,0.68-2.3,1.65-1.79
			c0.25,0.14,0.38,0.47,0.45,0.89c-0.36,0.49-0.73,0.83-1.09,0.98C61.95,93.51,62.34,93.96,63.01,94.56z"/>
		<g>
			<path class="st28" d="M50.41,112.49c-0.25,0-0.18,0.04-0.2-0.21c-0.59-5.85,4.35-11.14,4.56-11.36c0.19-0.2,0.28-0.16,0.48,0.03
				c0.2,0.19-0.11,0.27-0.3,0.47c-0.05,0.05-5.13,5.33-4.47,10.72c0.03,0.27,0.1,0.35-0.18,0.38
				C50.29,112.51,49.92,112.04,50.41,112.49z"/>
		</g>
	</g>
	<g>
		<g>
			<path class="st36" d="M253.19,89.19h55.51c3.07,0,5.55-2.49,5.55-5.55V28.95c0-3.07-2.49-5.55-5.55-5.55h-55.51
				c-3.07,0-5.55,2.49-5.55,5.55v54.69C247.63,86.7,250.12,89.19,253.19,89.19z"/>
		</g>
		<g>
			<g>
				<polygon class="st16" points="239.37,42.58 222.55,48.01 232.55,73.82 249.69,66.87 				"/>
				<path class="st37" d="M232.46,74.02l-0.05-0.14l-10.06-25.96l17.11-5.52l10.43,24.56l-0.14,0.06L232.46,74.02z M222.74,48.1
					l9.89,25.52l16.86-6.83l-10.2-24.03L222.74,48.1z"/>
			</g>
		</g>
		<g>
			<g>
				
					<rect x="227.66" y="49.15" transform="matrix(0.9552 -0.2961 0.2961 0.9552 -4.2277 71.1478)" class="st38" width="10.3" height="0.76"/>
			</g>
		</g>
		<g>
			<g>
				
					<rect x="228.79" y="52.65" transform="matrix(0.9552 -0.296 0.296 0.9552 -5.2123 71.6331)" class="st38" width="10.3" height="0.76"/>
			</g>
		</g>
		<g>
			<g>
				
					<rect x="233.55" y="55.18" transform="matrix(0.9552 -0.296 0.296 0.9552 -5.83 72.6076)" class="st38" width="6.6" height="0.76"/>
			</g>
		</g>
		<g>
			<g>
				
					<rect x="234.86" y="58.3" transform="matrix(0.9552 -0.296 0.296 0.9552 -6.6967 73.1331)" class="st38" width="6.6" height="0.76"/>
			</g>
		</g>
		<g>
			<path class="st39" d="M250.54,89.19l-5.25-20.23l4.4-2.08c0,0-3.94-8.96-5.02-9.65s-2.39-3.25-1.78-4.14c0,0,2.31,2.28,3.74,3.44
				s6.37,6.02,6.91,11.19c0,0,0.31,1.54,0,2.78c-0.31,1.24,2.24,7.03,3.47,8.49c1.24,1.47,1.7-4.25,1.7-4.25l5.64-0.23l1.51,14.67
				H250.54z"/>
		</g>
		<g>
			<path class="st40" d="M294,53.75c4.35,2.74,7.67,15.12,7.67,15.12l-7.19,2.25l1.85,18.07h-30.47V88.1c0,0-8.3-2.62-5.14-13.28
				l-2.01-0.08c0,0,1.39-14.82,7.57-16.06c6.18-1.24,6.18-1.24,6.18-1.24s-0.39,3.63,1.93,4.32s6.18-5.25,6.18-5.25
				S289.83,51.12,294,53.75z"/>
		</g>
		<g>
			<circle class="st41" cx="286.45" cy="27.88" r="8.03"/>
		</g>
		<g>
			<ellipse class="st41" cx="275.4" cy="37.83" rx="10.43" ry="9.96"/>
		</g>
		<g>
			<path class="st42" d="M270.35,60.75l2.11-3.29c0,0,0.34-5.23-0.66-5.59c-1-0.36,6.36-2.75,6.36-2.75l3.93,8.61
				C282.1,57.73,276.63,67.42,270.35,60.75z"/>
		</g>
		<g>
			<ellipse class="st43" cx="271.45" cy="41.61" rx="8.15" ry="11.48"/>
		</g>
		<g>
			<path class="st41" d="M276.09,38.99c0.03,0,0.05,0,0.08-0.01c0.2-0.04,0.33-0.25,0.29-0.45c-0.01-0.05-0.3-1.34-1.52-2.01
				c-0.95-0.52-2.17-0.5-3.62,0.05c-0.2,0.07-0.3,0.29-0.22,0.49c0.07,0.2,0.29,0.3,0.49,0.22c1.24-0.47,2.24-0.5,2.99-0.1
				c0.91,0.49,1.14,1.49,1.15,1.5C275.76,38.87,275.92,38.99,276.09,38.99z"/>
		</g>
		<g>
			<path class="st41" d="M268.53,36.91c0.02,0,0.05,0,0.07-0.01c0.21-0.04,0.34-0.24,0.3-0.44c-0.01-0.07-0.33-1.73-1.56-2.43
				c-0.66-0.37-1.44-0.4-2.31-0.07c-0.2,0.07-0.3,0.29-0.22,0.49c0.07,0.2,0.29,0.3,0.49,0.22c0.65-0.24,1.21-0.24,1.67,0.02
				c0.92,0.52,1.19,1.89,1.19,1.91C268.19,36.79,268.35,36.91,268.53,36.91z"/>
		</g>
		<g>
			<path class="st44" d="M269.49,44.22c0.16,0,0.31-0.1,0.36-0.26c0.07-0.2-0.04-0.41-0.24-0.48c-0.49-0.17-1.25-0.59-1.3-0.95
				c-0.03-0.22,0.22-0.46,0.44-0.62c2-1.47,0.74-4.37,0.68-4.49c-0.09-0.19-0.31-0.28-0.5-0.19c-0.19,0.08-0.28,0.31-0.19,0.5
				c0.01,0.02,1.07,2.47-0.44,3.57c-0.56,0.41-0.81,0.87-0.74,1.34c0.15,0.97,1.64,1.5,1.81,1.56
				C269.41,44.22,269.45,44.22,269.49,44.22z"/>
		</g>
		<g>
			<path class="st44" d="M269.37,48.07c0.23,0,0.46-0.03,0.68-0.09c1.24-0.34,1.73-1.52,1.75-1.57c0.08-0.19-0.01-0.42-0.21-0.5
				c-0.19-0.08-0.41,0.01-0.5,0.21c-0.01,0.02-0.39,0.89-1.26,1.12c-0.75,0.2-1.68-0.1-2.74-0.91c-0.17-0.13-0.41-0.09-0.53,0.07
				c-0.13,0.17-0.09,0.41,0.07,0.53C267.63,47.69,268.55,48.07,269.37,48.07z"/>
		</g>
		<g>
			<circle class="st41" cx="272.79" cy="40.62" r="0.98"/>
		</g>
		<g>
			<circle class="st41" cx="265.87" cy="38.66" r="0.98"/>
		</g>
		<g>
			
				<rect x="281.54" y="34.94" transform="matrix(0.9145 -0.4045 0.4045 0.9145 8.1281 117.4118)" class="st16" width="0.76" height="9.06"/>
		</g>
		<g>
			<polygon class="st45" points="288.02,44.52 280.62,39.64 270.66,54.15 277.66,59.66 			"/>
		</g>
		<g>
			<path class="st39" d="M295.31,70.82l6.37-1.95l7.9,20.32h-13.24L281.77,62.7c0,0-3.01-4.03-2.16-6.17l-2.28-8.06
				c0,0,0.57-1.03,1.28-0.46c0,0-1.16-4.41,0.91-4.61c0,0,1.31-2.11,2.59,0.45c0,0,3.26,2.98,3.73,7.14c0,0,1.46,0.61,1.41,1.7
				s-0.8,6.19-0.8,6.66C286.44,59.82,295.31,70.82,295.31,70.82z"/>
		</g>
		<g>
			<path class="st44" d="M302.94,83.08c0.08,0,0.15-0.02,0.22-0.07c0.17-0.12,0.21-0.36,0.09-0.53l-16.5-23.36
				c-0.12-0.17-0.36-0.21-0.53-0.09c-0.17,0.12-0.21,0.36-0.09,0.53l16.5,23.36C302.71,83.03,302.82,83.08,302.94,83.08z"/>
		</g>
		<g>
			<g>
				<polygon class="st44" points="283.92,51.17 284.65,50.95 282.1,43.84 282.1,43.84 				"/>
			</g>
		</g>
		<g>
			<g>
				<polygon class="st44" points="282.09,51.99 282.81,51.74 279.51,43.4 279.34,43.45 				"/>
			</g>
		</g>
		<g>
			<g>
				<polygon class="st44" points="280.37,52.8 280.77,52.58 278.7,47.96 278.6,48.01 				"/>
			</g>
		</g>
		<g>
			<g>
				<polygon class="st46" points="266.58,32.4 267.13,31.92 264.66,27.36 264.11,27.78 				"/>
			</g>
		</g>
		<g>
			<path class="st16" d="M276.82,35.55c-1.24-0.28-2.33-0.93-3.06-1.82c-0.75-0.92-1.04-1.99-0.8-3.01l0,0
				c0.23-1.02,0.95-1.86,2.03-2.36c1.04-0.49,2.3-0.6,3.55-0.32c2.6,0.59,4.33,2.76,3.86,4.83c-0.23,1.02-0.95,1.86-2.03,2.36
				c-0.67,0.31-1.42,0.47-2.2,0.47C277.72,35.71,277.27,35.66,276.82,35.55z M275.31,29.04c-0.86,0.4-1.43,1.06-1.61,1.84l0,0
				c-0.18,0.79,0.05,1.63,0.65,2.36c0.62,0.76,1.56,1.32,2.64,1.56c1.08,0.25,2.17,0.15,3.06-0.26c0.86-0.4,1.43-1.06,1.61-1.84
				c0.38-1.66-1.1-3.42-3.29-3.92c-0.39-0.09-0.79-0.13-1.18-0.13C276.52,28.65,275.88,28.78,275.31,29.04z"/>
		</g>
		<g>
			<path class="st16" d="M267.36,32.17c-1.08-0.25-2.01-0.83-2.64-1.64c-0.64-0.83-0.87-1.8-0.66-2.74l0,0
				c0.43-1.9,2.62-3.02,4.87-2.51c2.25,0.51,3.73,2.48,3.3,4.37c-0.21,0.93-0.85,1.71-1.78,2.18c-0.6,0.3-1.28,0.46-1.98,0.46
				C268.1,32.29,267.73,32.25,267.36,32.17z M264.81,27.96c-0.16,0.71,0.02,1.46,0.52,2.1c0.51,0.67,1.3,1.15,2.2,1.36
				c0.9,0.21,1.82,0.11,2.57-0.27c0.73-0.37,1.22-0.96,1.38-1.67c0.34-1.49-0.88-3.04-2.72-3.46c-0.31-0.07-0.63-0.11-0.93-0.11
				C266.36,25.92,265.09,26.73,264.81,27.96z"/>
		</g>
		<g>
			
				<rect x="272.43" y="28.66" transform="matrix(0.3694 -0.9293 0.9293 0.3694 144.5274 272.1885)" class="st16" width="0.76" height="1.89"/>
		</g>
	</g>
</g>
</svg>
